<svg width="435" height="361" viewBox="0 0 435 361" fill="none" xmlns="http://www.w3.org/2000/svg">
<path d="M43.5172 217.773C43.3921 218.592 43.9545 219.358 44.7734 219.483L58.1184 221.522C58.9373 221.648 59.7027 221.085 59.8278 220.266C59.953 219.447 59.3906 218.682 58.5717 218.557L46.7094 216.744L48.5224 204.882C48.6476 204.063 48.0852 203.297 47.2663 203.172C46.4473 203.047 45.682 203.609 45.5569 204.428L43.5172 217.773ZM178.483 121.227C178.608 120.408 178.046 119.642 177.227 119.517L163.882 117.478C163.063 117.352 162.297 117.915 162.172 118.734C162.047 119.553 162.609 120.318 163.428 120.443L175.291 122.256L173.478 134.118C173.352 134.937 173.915 135.703 174.734 135.828C175.553 135.953 176.318 135.391 176.443 134.572L178.483 121.227ZM45.8882 219.209L177.888 122.209L176.112 119.791L44.1118 216.791L45.8882 219.209Z" fill="#636363"/>
<path d="M158.645 259.644C159.001 260.392 159.895 260.71 160.644 260.355L172.838 254.563C173.586 254.207 173.905 253.312 173.549 252.564C173.194 251.816 172.299 251.497 171.551 251.853L160.711 257.001L155.563 246.162C155.207 245.414 154.312 245.095 153.564 245.451C152.816 245.806 152.497 246.701 152.853 247.449L158.645 259.644ZM203.355 140.356C202.999 139.608 202.105 139.29 201.356 139.645L189.162 145.437C188.414 145.793 188.095 146.688 188.451 147.436C188.806 148.184 189.701 148.503 190.449 148.147L201.289 142.998L206.437 153.838C206.793 154.586 207.688 154.905 208.436 154.549C209.184 154.194 209.503 153.299 209.147 152.551L203.355 140.356ZM161.413 259.503L203.413 141.503L200.587 140.497L158.587 258.497L161.413 259.503Z" fill="#636363"/>
<path d="M276.264 260.307C276.986 260.714 277.901 260.458 278.307 259.736L284.929 247.972C285.336 247.25 285.08 246.335 284.358 245.929C283.636 245.522 282.721 245.778 282.315 246.5L276.429 256.957L265.972 251.071C265.25 250.664 264.335 250.92 263.929 251.642C263.522 252.364 263.778 253.279 264.5 253.685L276.264 260.307ZM244.736 139.693C244.014 139.286 243.099 139.542 242.693 140.264L236.071 152.028C235.664 152.75 235.92 153.665 236.642 154.071C237.364 154.478 238.279 154.222 238.685 153.5L244.571 143.043L255.028 148.929C255.75 149.336 256.665 149.08 257.071 148.358C257.478 147.636 257.222 146.721 256.5 146.315L244.736 139.693ZM278.445 258.596L245.445 140.596L242.555 141.404L275.555 259.404L278.445 258.596Z" fill="#636363"/>
<path d="M390.148 222.493C390.972 222.411 391.574 221.676 391.493 220.852L390.161 207.418C390.08 206.593 389.345 205.991 388.521 206.073C387.696 206.155 387.094 206.889 387.176 207.714L388.359 219.655L376.418 220.839C375.593 220.92 374.991 221.655 375.073 222.479C375.155 223.304 375.889 223.906 376.714 223.824L390.148 222.493ZM267.852 119.507C267.028 119.589 266.426 120.324 266.507 121.148L267.839 134.582C267.92 135.407 268.655 136.009 269.479 135.927C270.304 135.845 270.906 135.111 270.824 134.286L269.641 122.345L281.582 121.161C282.407 121.08 283.009 120.345 282.927 119.521C282.845 118.696 282.111 118.094 281.286 118.176L267.852 119.507ZM390.951 219.84L268.951 119.84L267.049 122.16L389.049 222.16L390.951 219.84Z" fill="#636363"/>
<circle cx="217" cy="98" r="40" fill="#C4C4C4"/>
<path d="M189.309 98.2C189.309 96.4667 189.684 94.925 190.434 93.575C191.184 92.2083 192.226 91.15 193.559 90.4C194.909 89.6333 196.434 89.25 198.134 89.25C200.217 89.25 202.001 89.8 203.484 90.9C204.967 92 205.959 93.5 206.459 95.4H201.759C201.409 94.6667 200.909 94.1083 200.259 93.725C199.626 93.3417 198.901 93.15 198.084 93.15C196.767 93.15 195.701 93.6083 194.884 94.525C194.067 95.4417 193.659 96.6667 193.659 98.2C193.659 99.7333 194.067 100.958 194.884 101.875C195.701 102.792 196.767 103.25 198.084 103.25C198.901 103.25 199.626 103.058 200.259 102.675C200.909 102.292 201.409 101.733 201.759 101H206.459C205.959 102.9 204.967 104.4 203.484 105.5C202.001 106.583 200.217 107.125 198.134 107.125C196.434 107.125 194.909 106.75 193.559 106C192.226 105.233 191.184 104.175 190.434 102.825C189.684 101.475 189.309 99.9333 189.309 98.2ZM222.502 107L220.877 105.425C219.26 106.658 217.327 107.275 215.077 107.275C213.727 107.275 212.552 107.058 211.552 106.625C210.552 106.175 209.777 105.55 209.227 104.75C208.694 103.933 208.427 102.983 208.427 101.9C208.427 100.8 208.719 99.8083 209.302 98.925C209.902 98.025 210.794 97.2917 211.977 96.725C211.544 96.1917 211.235 95.6833 211.052 95.2C210.869 94.7 210.777 94.1583 210.777 93.575C210.777 92.7417 210.994 91.9833 211.427 91.3C211.86 90.6167 212.485 90.0833 213.302 89.7C214.135 89.3 215.119 89.1 216.252 89.1C217.402 89.1 218.377 89.3083 219.177 89.725C219.977 90.1417 220.577 90.7 220.977 91.4C221.377 92.1 221.56 92.8667 221.527 93.7H217.502C217.519 93.25 217.402 92.9083 217.152 92.675C216.919 92.425 216.602 92.3 216.202 92.3C215.802 92.3 215.469 92.4167 215.202 92.65C214.935 92.8833 214.802 93.1833 214.802 93.55C214.802 93.9 214.91 94.2667 215.127 94.65C215.36 95.0333 215.719 95.475 216.202 95.975L220.477 100.15C220.51 100.067 220.552 99.9667 220.602 99.85C220.669 99.7333 220.735 99.6 220.802 99.45L221.727 97.875H226.002L224.802 100.05C224.352 101.033 223.835 101.967 223.252 102.85L227.477 107H222.502ZM215.277 103.825C216.394 103.825 217.385 103.508 218.252 102.875L214.352 99.1C213.152 99.7167 212.552 100.55 212.552 101.6C212.552 102.233 212.794 102.767 213.277 103.2C213.777 103.617 214.444 103.825 215.277 103.825ZM228.298 98.2C228.298 96.4667 228.673 94.925 229.423 93.575C230.173 92.2083 231.215 91.15 232.548 90.4C233.898 89.6333 235.423 89.25 237.123 89.25C239.206 89.25 240.99 89.8 242.473 90.9C243.956 92 244.948 93.5 245.448 95.4H240.748C240.398 94.6667 239.898 94.1083 239.248 93.725C238.615 93.3417 237.89 93.15 237.073 93.15C235.756 93.15 234.69 93.6083 233.873 94.525C233.056 95.4417 232.648 96.6667 232.648 98.2C232.648 99.7333 233.056 100.958 233.873 101.875C234.69 102.792 235.756 103.25 237.073 103.25C237.89 103.25 238.615 103.058 239.248 102.675C239.898 102.292 240.398 101.733 240.748 101H245.448C244.948 102.9 243.956 104.4 242.473 105.5C240.99 106.583 239.206 107.125 237.123 107.125C235.423 107.125 233.898 106.75 232.548 106C231.215 105.233 230.173 104.175 229.423 102.825C228.673 101.475 228.298 99.9333 228.298 98.2Z" fill="#2E2E2E"/>
<rect x="115" y="356" width="90" height="5" rx="2" fill="#C4C4C4"/>
<path d="M126 325C126 323.895 126.895 323 128 323H193C194.105 323 195 323.895 195 325V357H126V325Z" fill="#C4C4C4"/>
<rect x="129" y="326" width="63" height="30" rx="2" fill="white"/>
<path d="M152 356H172V356C172 357.657 170.657 359 169 359H155C153.343 359 152 357.657 152 356V356Z" fill="#636363"/>
<rect x="140" y="263" width="40" height="50" rx="2" fill="#C4C4C4"/>
<rect x="143" y="271" width="34" height="3" fill="white"/>
<rect x="143" y="277" width="26" height="3" fill="white"/>
<rect x="143" y="283" width="30" height="3" fill="white"/>
<rect x="143" y="289" width="16" height="3" fill="white"/>
<rect x="143" y="295" width="30" height="3" fill="white"/>
<rect x="143" y="301" width="30" height="3" fill="white"/>
<rect x="230" y="356" width="90" height="5" rx="2" fill="#C4C4C4"/>
<path d="M241 325C241 323.895 241.895 323 243 323H308C309.105 323 310 323.895 310 325V357H241V325Z" fill="#C4C4C4"/>
<rect x="244" y="326" width="63" height="30" rx="2" fill="white"/>
<path d="M267 356H287V356C287 357.657 285.657 359 284 359H270C268.343 359 267 357.657 267 356V356Z" fill="#636363"/>
<rect x="257" y="263" width="40" height="50" rx="2" fill="#C4C4C4"/>
<rect x="260" y="271" width="34" height="3" fill="white"/>
<rect x="260" y="277" width="26" height="3" fill="white"/>
<rect x="260" y="283" width="30" height="3" fill="white"/>
<rect x="260" y="289" width="16" height="3" fill="white"/>
<rect x="260" y="295" width="30" height="3" fill="white"/>
<rect x="260" y="301" width="30" height="3" fill="white"/>
<rect y="317" width="90" height="5" rx="2" fill="#C4C4C4"/>
<path d="M11 286C11 284.895 11.8954 284 13 284H78C79.1046 284 80 284.895 80 286V318H11V286Z" fill="#C4C4C4"/>
<rect x="14" y="287" width="63" height="30" rx="2" fill="white"/>
<path d="M37 317H57V317C57 318.657 55.6569 320 54 320H40C38.3431 320 37 318.657 37 317V317Z" fill="#636363"/>
<rect x="25" y="224" width="40" height="50" rx="2" fill="#C4C4C4"/>
<rect x="28" y="232" width="34" height="3" fill="white"/>
<rect x="28" y="238" width="26" height="3" fill="white"/>
<rect x="28" y="244" width="30" height="3" fill="white"/>
<rect x="28" y="250" width="16" height="3" fill="white"/>
<rect x="28" y="256" width="30" height="3" fill="white"/>
<rect x="28" y="262" width="30" height="3" fill="white"/>
<rect x="345" y="317" width="90" height="5" rx="2" fill="#C4C4C4"/>
<path d="M356 286C356 284.895 356.895 284 358 284H423C424.105 284 425 284.895 425 286V318H356V286Z" fill="#C4C4C4"/>
<rect x="359" y="287" width="63" height="30" rx="2" fill="white"/>
<path d="M382 317H402V317C402 318.657 400.657 320 399 320H385C383.343 320 382 318.657 382 317V317Z" fill="#636363"/>
<rect x="370" y="224" width="40" height="50" rx="2" fill="#C4C4C4"/>
<rect x="373" y="232" width="34" height="3" fill="white"/>
<rect x="373" y="238" width="26" height="3" fill="white"/>
<rect x="373" y="244" width="30" height="3" fill="white"/>
<rect x="373" y="250" width="16" height="3" fill="white"/>
<rect x="373" y="256" width="30" height="3" fill="white"/>
<rect x="373" y="262" width="30" height="3" fill="white"/>
<rect x="341" y="25" width="40" height="50" rx="2" fill="#C4C4C4"/>
<rect x="344" y="33" width="34" height="3" fill="white"/>
<rect x="344" y="39" width="26" height="3" fill="white"/>
<rect x="344" y="45" width="30" height="3" fill="white"/>
<rect x="344" y="51" width="16" height="3" fill="white"/>
<rect x="344" y="57" width="30" height="3" fill="white"/>
<rect x="344" y="63" width="30" height="3" fill="white"/>
<path d="M315.161 9.525V11.655H318.596V13.635H315.161V15.945H319.046V18H312.596V7.47H319.046V9.525H315.161ZM324.476 15.6L326.291 9.63H329.021L326.051 18H322.886L319.916 9.63H322.661L324.476 15.6ZM337.99 13.68C337.99 13.92 337.975 14.17 337.945 14.43H332.14C332.18 14.95 332.345 15.35 332.635 15.63C332.935 15.9 333.3 16.035 333.73 16.035C334.37 16.035 334.815 15.765 335.065 15.225H337.795C337.655 15.775 337.4 16.27 337.03 16.71C336.67 17.15 336.215 17.495 335.665 17.745C335.115 17.995 334.5 18.12 333.82 18.12C333 18.12 332.27 17.945 331.63 17.595C330.99 17.245 330.49 16.745 330.13 16.095C329.77 15.445 329.59 14.685 329.59 13.815C329.59 12.945 329.765 12.185 330.115 11.535C330.475 10.885 330.975 10.385 331.615 10.035C332.255 9.685 332.99 9.51 333.82 9.51C334.63 9.51 335.35 9.68 335.98 10.02C336.61 10.36 337.1 10.845 337.45 11.475C337.81 12.105 337.99 12.84 337.99 13.68ZM335.365 13.005C335.365 12.565 335.215 12.215 334.915 11.955C334.615 11.695 334.24 11.565 333.79 11.565C333.36 11.565 332.995 11.69 332.695 11.94C332.405 12.19 332.225 12.545 332.155 13.005H335.365ZM344.444 9.54C345.424 9.54 346.204 9.86 346.784 10.5C347.374 11.13 347.669 12 347.669 13.11V18H345.119V13.455C345.119 12.895 344.974 12.46 344.684 12.15C344.394 11.84 344.004 11.685 343.514 11.685C343.024 11.685 342.634 11.84 342.344 12.15C342.054 12.46 341.909 12.895 341.909 13.455V18H339.344V9.63H341.909V10.74C342.169 10.37 342.519 10.08 342.959 9.87C343.399 9.65 343.894 9.54 344.444 9.54ZM354.116 15.825V18H352.811C351.881 18 351.156 17.775 350.636 17.325C350.116 16.865 349.856 16.12 349.856 15.09V11.76H348.836V9.63H349.856V7.59H352.421V9.63H354.101V11.76H352.421V15.12C352.421 15.37 352.481 15.55 352.601 15.66C352.721 15.77 352.921 15.825 353.201 15.825H354.116ZM358.11 16.02H361.47V18H355.545V7.47H358.11V16.02ZM366.503 18.12C365.683 18.12 364.943 17.945 364.283 17.595C363.633 17.245 363.118 16.745 362.738 16.095C362.368 15.445 362.183 14.685 362.183 13.815C362.183 12.955 362.373 12.2 362.753 11.55C363.133 10.89 363.653 10.385 364.313 10.035C364.973 9.685 365.713 9.51 366.533 9.51C367.353 9.51 368.093 9.685 368.753 10.035C369.413 10.385 369.933 10.89 370.313 11.55C370.693 12.2 370.883 12.955 370.883 13.815C370.883 14.675 370.688 15.435 370.298 16.095C369.918 16.745 369.393 17.245 368.723 17.595C368.063 17.945 367.323 18.12 366.503 18.12ZM366.503 15.9C366.993 15.9 367.408 15.72 367.748 15.36C368.098 15 368.273 14.485 368.273 13.815C368.273 13.145 368.103 12.63 367.763 12.27C367.433 11.91 367.023 11.73 366.533 11.73C366.033 11.73 365.618 11.91 365.288 12.27C364.958 12.62 364.793 13.135 364.793 13.815C364.793 14.485 364.953 15 365.273 15.36C365.603 15.72 366.013 15.9 366.503 15.9ZM375.424 9.51C376.014 9.51 376.529 9.63 376.969 9.87C377.419 10.11 377.764 10.425 378.004 10.815V9.63H380.569V17.985C380.569 18.755 380.414 19.45 380.104 20.07C379.804 20.7 379.339 21.2 378.709 21.57C378.089 21.94 377.314 22.125 376.384 22.125C375.144 22.125 374.139 21.83 373.369 21.24C372.599 20.66 372.159 19.87 372.049 18.87H374.584C374.664 19.19 374.854 19.44 375.154 19.62C375.454 19.81 375.824 19.905 376.264 19.905C376.794 19.905 377.214 19.75 377.524 19.44C377.844 19.14 378.004 18.655 378.004 17.985V16.8C377.754 17.19 377.409 17.51 376.969 17.76C376.529 18 376.014 18.12 375.424 18.12C374.734 18.12 374.109 17.945 373.549 17.595C372.989 17.235 372.544 16.73 372.214 16.08C371.894 15.42 371.734 14.66 371.734 13.8C371.734 12.94 371.894 12.185 372.214 11.535C372.544 10.885 372.989 10.385 373.549 10.035C374.109 9.685 374.734 9.51 375.424 9.51ZM378.004 13.815C378.004 13.175 377.824 12.67 377.464 12.3C377.114 11.93 376.684 11.745 376.174 11.745C375.664 11.745 375.229 11.93 374.869 12.3C374.519 12.66 374.344 13.16 374.344 13.8C374.344 14.44 374.519 14.95 374.869 15.33C375.229 15.7 375.664 15.885 376.174 15.885C376.684 15.885 377.114 15.7 377.464 15.33C377.824 14.96 378.004 14.455 378.004 13.815ZM385.605 9.51C386.195 9.51 386.71 9.63 387.15 9.87C387.6 10.11 387.945 10.425 388.185 10.815V9.63H390.75V17.985C390.75 18.755 390.595 19.45 390.285 20.07C389.985 20.7 389.52 21.2 388.89 21.57C388.27 21.94 387.495 22.125 386.565 22.125C385.325 22.125 384.32 21.83 383.55 21.24C382.78 20.66 382.34 19.87 382.23 18.87H384.765C384.845 19.19 385.035 19.44 385.335 19.62C385.635 19.81 386.005 19.905 386.445 19.905C386.975 19.905 387.395 19.75 387.705 19.44C388.025 19.14 388.185 18.655 388.185 17.985V16.8C387.935 17.19 387.59 17.51 387.15 17.76C386.71 18 386.195 18.12 385.605 18.12C384.915 18.12 384.29 17.945 383.73 17.595C383.17 17.235 382.725 16.73 382.395 16.08C382.075 15.42 381.915 14.66 381.915 13.8C381.915 12.94 382.075 12.185 382.395 11.535C382.725 10.885 383.17 10.385 383.73 10.035C384.29 9.685 384.915 9.51 385.605 9.51ZM388.185 13.815C388.185 13.175 388.005 12.67 387.645 12.3C387.295 11.93 386.865 11.745 386.355 11.745C385.845 11.745 385.41 11.93 385.05 12.3C384.7 12.66 384.525 13.16 384.525 13.8C384.525 14.44 384.7 14.95 385.05 15.33C385.41 15.7 385.845 15.885 386.355 15.885C386.865 15.885 387.295 15.7 387.645 15.33C388.005 14.96 388.185 14.455 388.185 13.815ZM400.495 13.68C400.495 13.92 400.48 14.17 400.45 14.43H394.645C394.685 14.95 394.85 15.35 395.14 15.63C395.44 15.9 395.805 16.035 396.235 16.035C396.875 16.035 397.32 15.765 397.57 15.225H400.3C400.16 15.775 399.905 16.27 399.535 16.71C399.175 17.15 398.72 17.495 398.17 17.745C397.62 17.995 397.005 18.12 396.325 18.12C395.505 18.12 394.775 17.945 394.135 17.595C393.495 17.245 392.995 16.745 392.635 16.095C392.275 15.445 392.095 14.685 392.095 13.815C392.095 12.945 392.27 12.185 392.62 11.535C392.98 10.885 393.48 10.385 394.12 10.035C394.76 9.685 395.495 9.51 396.325 9.51C397.135 9.51 397.855 9.68 398.485 10.02C399.115 10.36 399.605 10.845 399.955 11.475C400.315 12.105 400.495 12.84 400.495 13.68ZM397.87 13.005C397.87 12.565 397.72 12.215 397.42 11.955C397.12 11.695 396.745 11.565 396.295 11.565C395.865 11.565 395.5 11.69 395.2 11.94C394.91 12.19 394.73 12.545 394.66 13.005H397.87ZM404.413 11.025C404.713 10.565 405.088 10.205 405.538 9.945C405.988 9.675 406.488 9.54 407.038 9.54V12.255H406.333C405.693 12.255 405.213 12.395 404.893 12.675C404.573 12.945 404.413 13.425 404.413 14.115V18H401.848V9.63H404.413V11.025Z" fill="#636363"/>
</svg>
